<svg version="1.1" id="Layer_1" xmlns="http://www.w3.org/2000/svg" xmlns:xlink="http://www.w3.org/1999/xlink" x="0px"
    y="0px" width="100%" viewBox="0 0 500 500" enable-background="new 0 0 500 500" xml:space="preserve">

    <path fill="#15CDD3" opacity="1.000000" stroke="none" d="
M188.973969,402.195160 
	C183.753448,411.137634 175.907440,416.273773 165.622818,415.831635 
	C154.852356,415.368622 147.215714,409.524017 142.829468,399.435150 
	C138.292953,389.000641 144.325470,376.665222 152.730103,371.179230 
	C161.836029,365.235443 178.821198,366.118530 185.687485,376.438446 
	C188.649750,380.890717 192.081421,382.451324 197.240631,382.149536 
	C203.612045,381.776794 210.024780,382.169250 216.416214,382.048950 
	C218.786148,382.004333 221.146393,381.443787 222.679504,381.232910 
	C212.498871,372.329132 201.487000,363.934540 192.031464,354.050964 
	C183.971863,345.626526 177.531631,335.610657 170.736771,326.041931 
	C168.461563,322.837952 166.493927,320.436401 162.137985,320.883514 
	C158.674911,321.238922 155.116501,321.250153 151.653519,320.895538 
	C145.181183,320.232788 140.773117,322.862213 136.511520,327.706177 
	C123.975174,341.955688 102.673363,337.318298 96.183594,320.837799 
	C88.910706,302.368652 102.836128,285.814331 122.823257,287.705963 
	C130.788696,288.459869 134.840134,293.612091 139.776352,298.316101 
	C141.098038,299.575623 143.081726,300.830872 144.793732,300.876434 
	C154.658875,301.139038 164.537613,301.204926 174.403198,300.973419 
	C178.081696,300.887115 180.220383,302.105103 181.753235,305.385864 
	C190.108353,323.268250 202.142075,338.468506 216.945221,351.323761 
	C228.979279,361.774323 242.759277,369.492004 258.148346,374.090759 
	C265.733521,376.357452 273.176941,379.750763 280.918640,380.676666 
	C290.655304,381.841125 300.654724,381.437347 310.498810,380.916779 
	C322.908600,380.260529 334.938416,377.214722 346.625885,373.018616 
	C360.384186,368.078979 372.749725,360.671997 384.106323,351.491608 
	C402.278992,336.801178 414.786987,318.059540 423.138214,296.480957 
	C427.009888,286.476929 429.301270,275.992493 430.069611,265.229584 
	C430.374817,260.954346 431.121033,256.684509 431.083954,252.417282 
	C431.033600,246.628555 430.463562,240.841827 430.045898,235.059326 
	C428.936707,219.703873 424.328033,205.288284 417.278839,191.762848 
	C408.225433,174.391891 395.949829,159.728943 380.418152,147.444550 
	C366.557556,136.481827 350.823090,129.834656 334.470184,124.395058 
	C327.721863,122.150299 320.282990,121.397621 313.115082,121.132507 
	C301.823181,120.714890 290.423889,119.969322 279.207367,122.017998 
	C265.637268,124.496574 252.593689,128.679108 240.305969,135.104218 
	C226.274124,142.441315 214.317139,152.355240 203.517593,163.837875 
	C194.910202,172.989700 188.251419,183.429703 182.807632,194.642426 
	C180.929123,198.511673 178.871063,200.154831 174.272049,200.065445 
	C164.196701,199.869614 154.074661,200.228424 144.039841,201.124207 
	C141.597107,201.342270 139.084000,204.218536 137.177139,206.379089 
	C130.031662,214.475189 121.068771,216.814636 111.206413,213.687653 
	C102.451736,210.911896 96.504639,204.324554 94.822784,195.183746 
	C92.722328,183.767838 97.728798,170.600098 112.278160,166.921661 
	C123.194344,164.161758 131.188690,166.743790 138.290451,175.734314 
	C140.127869,178.060394 141.780930,180.491455 145.634171,180.375153 
	C152.055923,180.181366 158.545319,181.248184 164.910263,180.689941 
	C167.107758,180.497208 169.607162,177.380188 170.962921,175.020996 
	C178.135101,162.540573 186.949142,151.295502 197.359604,141.513275 
	C205.077408,134.261185 213.903412,128.188461 222.764221,121.171921 
	C221.047821,120.755981 219.358536,119.981438 217.682175,120.008499 
	C212.549820,120.091324 207.424698,120.544327 202.292313,120.730675 
	C198.973923,120.851158 195.614059,120.476601 192.338547,120.870605 
	C190.568161,121.083565 188.350876,122.005936 187.335876,123.358948 
	C180.501099,132.469788 170.075897,137.031464 159.159714,133.719406 
	C149.583481,130.813904 143.849503,123.725334 141.962952,113.507515 
	C139.231339,98.712708 151.892715,86.074715 164.754120,85.355179 
	C174.135086,84.830353 182.293594,89.532890 187.622360,97.568474 
	C189.516479,100.424728 191.479797,101.063393 194.490173,101.058525 
	C229.816757,101.001335 265.160370,101.683823 300.464203,100.784569 
	C324.061188,100.183517 345.536835,106.337151 366.589172,115.877701 
	C385.618896,124.501633 401.557648,137.313049 415.050079,152.822433 
	C433.128784,173.603683 444.286163,198.145782 449.415863,225.199509 
	C450.830017,232.657654 450.619476,240.443268 450.914246,248.087875 
	C451.133759,253.781448 451.207184,259.501953 450.924255,265.189484 
	C450.181061,280.130890 445.938599,294.287781 440.333038,308.011963 
	C432.656677,326.806274 421.286896,343.225708 406.902435,357.510315 
	C386.261169,378.008392 361.687103,391.614227 333.299225,397.810699 
	C324.084991,399.822021 314.465027,399.974487 304.097839,400.978088 
	C266.989685,400.974518 230.814301,400.951569 194.639069,401.017975 
	C192.749985,401.021423 190.862305,401.785309 188.973969,402.195160 
z" />
    <path fill="#15CDD3" opacity="1.000000" stroke="none" d="
M96.978401,262.067871 
	C93.325829,268.187408 88.170425,272.161591 81.282211,274.384308 
	C73.808456,276.795898 66.866020,275.660645 61.052761,271.152618 
	C57.039093,268.040161 53.295010,263.643677 51.326015,259.014709 
	C46.359760,247.339462 54.134254,232.678650 66.144058,227.951202 
	C77.525482,223.471115 89.873901,229.028488 95.029175,237.274643 
	C98.076332,242.148727 103.447289,240.415054 107.620186,240.763962 
	C114.634712,241.350479 121.779785,240.375916 129.695923,240.338867 
	C140.988770,240.766281 151.455414,240.973358 161.922714,241.014557 
	C164.361099,241.024170 166.801712,240.469833 169.241302,240.174973 
	C178.702515,240.174973 188.163727,240.174973 197.826294,240.174973 
	C200.450638,221.075424 207.257401,204.004532 218.619583,189.114624 
	C232.487320,170.941223 250.470642,157.652359 272.683685,152.102234 
	C296.211975,146.223495 319.898193,146.875381 342.562622,157.231934 
	C366.196136,168.031311 383.041168,185.461960 394.084961,208.909134 
	C399.408417,220.211411 401.981293,232.079559 402.915283,244.333496 
	C404.959686,271.157745 396.963562,294.710297 379.980591,315.634857 
	C364.012756,335.308685 343.581879,347.584137 319.028412,351.662262 
	C290.225433,356.446198 263.122406,351.262878 239.316956,332.885803 
	C220.722366,318.531342 207.784531,300.555054 201.933502,277.673798 
	C200.530136,272.185791 199.111649,266.701630 196.984467,260.829407 
	C195.289612,260.303131 194.310516,260.041687 193.331192,260.040833 
	C163.318359,260.014679 133.305511,260.002930 103.292725,260.043762 
	C101.842873,260.045715 100.393700,260.545044 98.944206,260.812744 
	C98.944206,260.812744 98.560051,260.955933 98.108932,261.088013 
	C97.431343,261.502716 97.204872,261.785278 96.978401,262.067871 
M228.422134,210.001831 
	C226.939087,213.091751 225.140442,216.072647 224.028839,219.290878 
	C219.737152,231.715851 216.210358,244.271423 218.866562,257.670319 
	C220.350342,265.155151 220.709137,272.999603 223.184280,280.122772 
	C228.287720,294.809937 237.652206,306.589111 249.776047,316.536835 
	C266.989502,330.660614 287.095032,334.797577 308.287231,333.675201 
	C320.430847,333.032043 332.109741,328.714661 342.791199,322.155914 
	C356.131897,313.964294 366.975952,303.399292 373.945709,289.449890 
	C381.881073,273.567932 384.903992,256.961151 382.497162,238.819733 
	C379.485474,216.119278 368.254669,198.887314 351.130890,185.154282 
	C340.218414,176.402618 327.448669,171.604645 313.226074,169.225861 
	C299.082397,166.860245 285.792938,168.520432 272.829010,172.831558 
	C253.645981,179.210815 239.059555,191.839859 228.422134,210.001831 
z" />
    <path fill="#4EC1D0" opacity="1.000000" stroke="none" d="
M189.440155,402.109711 
	C190.862305,401.785309 192.749985,401.021423 194.639069,401.017975 
	C230.814301,400.951569 266.989685,400.974518 303.641357,401.002228 
	C302.432190,401.348541 300.747253,401.950623 299.061249,401.953583 
	C262.676361,402.017456 226.291336,402.014404 189.440155,402.109711 
z" />
    <path fill="#3DC5D4" opacity="1.000000" stroke="none" d="
M99.414246,260.885529 
	C100.393700,260.545044 101.842873,260.045715 103.292725,260.043762 
	C133.305511,260.002930 163.318359,260.014679 193.331192,260.040833 
	C194.310516,260.041687 195.289612,260.303131 196.637390,260.627991 
	C164.632080,260.861328 132.258179,260.909821 99.414246,260.885529 
z" />
    <path fill="#5CA4B7" opacity="1.000000" stroke="none" d="
M168.753662,240.108826 
	C166.801712,240.469833 164.361099,241.024170 161.922714,241.014557 
	C151.455414,240.973358 140.988770,240.766281 130.144669,240.397598 
	C142.600296,240.131256 155.433167,240.086960 168.753662,240.108826 
z" />
    <path fill="#3DC5D4" opacity="1.000000" stroke="none" d="
M97.246796,261.978058 
	C97.204872,261.785278 97.431343,261.502716 97.904076,261.095276 
	C97.938622,261.276367 97.726898,261.582306 97.246796,261.978058 
z" />

    <path fill="#04767B" opacity="1.000000" stroke="none" d="
M347.150360,303.229706 
	C339.621521,307.508820 332.444885,311.761047 324.990814,315.453003 
	C314.906189,320.447784 303.858978,319.772491 293.277466,318.641388 
	C277.316071,316.935242 263.935547,309.086426 253.001511,297.413086 
	C241.639511,285.282867 235.862015,270.728333 234.966690,254.117538 
	C233.938522,235.042252 240.391312,218.412216 253.095215,204.839264 
	C263.296234,193.940414 275.706848,185.591217 291.658569,184.960403 
	C297.338928,184.735779 303.008514,184.139481 308.689026,184.032654 
	C335.892426,183.520920 363.831879,209.648102 369.157379,235.424149 
	C374.719482,262.345032 366.871033,284.389465 347.150360,303.229706 
z" />
</svg>